<?xml version="1.0" encoding="utf-8"?>
<!-- Generator: Adobe Illustrator 18.1.1, SVG Export Plug-In . SVG Version: 6.00 Build 0)  -->
<svg version="1.1" id="google-plus" xmlns="http://www.w3.org/2000/svg" xmlns:xlink="http://www.w3.org/1999/xlink" x="0px"
	 y="0px" viewBox="0 -674.6 306 2141.2" enable-background="new 0 -674.6 306 2141.2" xml:space="preserve">
<path fill="#FFFFFF" d="M221.4,1193.6l-35.4-0.1c-39.8,0-65.6,26.4-65.6,67.2v31H84.8c-3.1,0-5.6,2.5-5.6,5.6l0,0v44.9
	c0,3.1,2.5,5.6,5.6,5.6h35.6v113.4c0,3.1,2.5,5.6,5.6,5.6h46.4c3.1,0,5.6-2.5,5.6-5.6v-113.3h41.6c3.1,0,5.6-2.5,5.6-5.6v-44.9
	c0-3.1-2.5-5.6-5.6-5.6h-41.7v-26.3c0-12.7,3-19,19.5-19h23.9c3.1,0,5.6-2.5,5.6-5.6v-41.7C226.9,1196.1,224.5,1193.6,221.4,1193.6z
	"/>
<path fill="#FFFFFF" d="M271.3-606.6c-12.2-20.9-28.8-37.5-49.7-49.7c-20.9-12.2-43.8-18.3-68.6-18.3s-47.6,6.1-68.6,18.3
	s-37.5,28.8-49.7,49.7c-12.2,20.9-18.3,43.8-18.3,68.6c0,29.7,8.7,56.5,26,80.2c17.4,23.8,39.8,40.2,67.3,49.4
	c3.2,0.6,5.6,0.2,7.1-1.3c1.5-1.5,2.3-3.2,2.3-5.4c0-0.4,0-3.6-0.1-9.6c-0.1-5.3-0.1-10.6-0.1-15.8l-4.1,0.7
	c-2.6,0.5-5.9,0.6-9.8,0.6c-4-0.1-8.1-0.5-12.4-1.3c-4.3-0.7-8.2-2.5-11.9-5.4c-3.6-2.8-6.3-6.5-7.8-10.9l-1.8-4.1
	c-1.2-2.7-3.1-5.7-5.6-9.1c-2.5-3.3-5.1-5.6-7.7-6.7l-1.3-0.9c-0.8-0.6-1.6-1.3-2.3-2.1c-0.7-0.8-1.3-1.6-1.6-2.5
	c-0.4-0.8-0.1-1.5,0.9-2c1-0.5,2.6-0.8,5.2-0.8l3.6,0.5c2.5,0.5,5.5,1.9,9,4.3c3.5,2.4,6.4,5.5,8.7,9.3c2.7,4.8,6,8.6,9.8,11.1
	c3.8,2.5,7.7,3.8,11.7,3.8c3.9,0,7.3-0.3,10.1-0.9c2.8-0.6,5.6-1.5,8-2.6c1.1-7.9,4-14,8.7-18.3c-6.7-0.7-12.8-1.8-18.2-3.2
	c-5.4-1.5-10.9-3.7-16.8-6.9c-5.7-3.3-10.6-7.2-14.4-11.9c-3.8-4.7-6.9-10.9-9.4-18.7s-3.6-16.6-3.6-26.7c0-14.4,4.6-26.6,14-36.6
	c-4.4-10.7-4-22.9,1.3-36.2c3.5-1.1,8.6-0.3,15.3,2.4c6.7,2.6,11.7,4.9,14.8,6.8c3.2,1.9,5.6,3.5,7.6,4.8c11-3.1,22.4-4.6,34.1-4.6
	c11.7,0,23.1,1.5,34.1,4.6l6.7-4.3c4.6-2.8,10.1-5.5,16.4-7.8c6.3-2.4,11.1-3,14.4-1.9c5.4,13.4,5.8,25.5,1.5,36.2
	c9.4,10.1,14,22.3,14,36.6c0,10.1-1.2,19-3.6,26.8c-2.5,7.7-5.6,14-9.4,18.7c-3.8,4.6-8.7,8.7-14.4,11.8c-5.7,3.2-11.3,5.6-16.8,6.9
	c-5.4,1.5-11.5,2.5-18.2,3.2c6.2,5.4,9.3,13.8,9.3,25.2v37.5c0,2.1,0.7,3.9,2.2,5.4c1.5,1.5,3.8,1.8,7,1.3
	c27.5-9.1,50-25.6,67.3-49.4c17.5-23.9,26.1-50.6,26.1-80.3C289.6-562.8,283.5-585.6,271.3-606.6L271.3-606.6z"/>
<path fill="#FFFFFF" d="M266.2,375.5v-37.7h-18.9v37.7h-37.7v18.9h37.7v37.7h18.9v-37.7H304v-18.9H266.2z M96.4,375.5v37.7h53.3
	C142,435.2,121,451,96.4,451c-31.2,0-56.7-25.4-56.7-56.7s25.4-56.7,56.7-56.7c13.5,0,26.6,4.8,36.6,13.7l24.8-28.5
	c-17-14.8-38.9-22.9-61.5-22.9C44.4,300,2,342.4,2,394.4s42.4,94.4,94.4,94.4s94.4-42.4,94.4-94.4v-18.9H96.4z"/>
</svg>
